inDegrees=no
num_controls=7
num_derivatives=13
num_iterations=219
num_multipliers=7
num_parameters=0
num_slacks=7
num_states=26
objective=5.693947
objective_accelerations=0.741996
objective_balance=0.045100
objective_effort=0.264723
objective_height=4.597221
objective_ligament=0.044906
solver_duration=2408.286668
status=Solve_Succeeded
success=true
DataType=double
version=3
OpenSimVersion=4.4-2022-07-23-0e9fedc
endheader
time	/jointset/ground_pelvis/pelvis_tilt/value	/jointset/ground_pelvis/pelvis_tx/value	/jointset/ground_pelvis/pelvis_ty/value	/jointset/hip_l/hip_flexion_l/value	/jointset/hip_l/hip_adduction_l/value	/jointset/hip_l/hip_rotation_l/value	/jointset/back/lumbar_extension/value	/jointset/patellofemoral_l/patellar_flexion_l/value	/jointset/knee_l/knee_flexion_l/value	/jointset/knee_l/knee_adduction_l/value	/jointset/knee_l/knee_rotation_l/value	/jointset/ankle_l/ankle_angle_l/value	/jointset/subtalar_l/subtalar_angle_l/value	/jointset/ground_pelvis/pelvis_tilt/speed	/jointset/ground_pelvis/pelvis_tx/speed	/jointset/ground_pelvis/pelvis_ty/speed	/jointset/hip_l/hip_flexion_l/speed	/jointset/hip_l/hip_adduction_l/speed	/jointset/hip_l/hip_rotation_l/speed	/jointset/back/lumbar_extension/speed	/jointset/patellofemoral_l/patellar_flexion_l/speed	/jointset/knee_l/knee_flexion_l/speed	/jointset/knee_l/knee_adduction_l/speed	/jointset/knee_l/knee_rotation_l/speed	/jointset/ankle_l/ankle_angle_l/speed	/jointset/subtalar_l/subtalar_angle_l/speed	/forceset/tau_hip_flexion_l	/forceset/tau_hip_adduction_l	/forceset/tau_hip_rotation_l	/forceset/tau_knee_flexion_l	/forceset/tau_ankle_angle_l	/forceset/tau_subtalar_angle_l	/forceset/tau_lumbar_extension	lambda_cid13_p0	lambda_cid13_p1	lambda_cid13_p2	lambda_cid13_p3	lambda_cid13_p4	lambda_cid13_p5	lambda_cid14_p0	/jointset/ground_pelvis/pelvis_tilt/accel	/jointset/ground_pelvis/pelvis_tx/accel	/jointset/ground_pelvis/pelvis_ty/accel	/jointset/hip_l/hip_flexion_l/accel	/jointset/hip_l/hip_adduction_l/accel	/jointset/hip_l/hip_rotation_l/accel	/jointset/back/lumbar_extension/accel	/jointset/patellofemoral_l/patellar_flexion_l/accel	/jointset/knee_l/knee_flexion_l/accel	/jointset/knee_l/knee_adduction_l/accel	/jointset/knee_l/knee_rotation_l/accel	/jointset/ankle_l/ankle_angle_l/accel	/jointset/subtalar_l/subtalar_angle_l/accel	gamma_cid13_p0	gamma_cid13_p1	gamma_cid13_p2	gamma_cid13_p3	gamma_cid13_p4	gamma_cid13_p5	gamma_cid14_p0
0.5	-0.2618642448781071	0.01395765018651943	0.7633272955820125	0.9902365867933842	-0.4447266557487771	-0.2197389562930664	-0.2519037694441049	0.8878626008247898	0.8878626008247904	-0.09889869503602683	-0.1660486792543683	0.2278868929963632	0.02775497936137359	-0.5644790263146839	-0.09318827127744213	-0.5345872102361409	2.194934990132456	-0.2280930219080431	0.7796513897941225	-0.1316989759928964	2.197246644644127	2.197246644644126	0.2020163628954862	-0.05893159917510416	0.7695262499317196	0.1740291535952656	-0.134548318696316	0.02724229966034061	-0.01292830388215915	-0.2340461708634222	0.004216273494618331	0.03817861267847976	0.1442176917309083	-30.46020673384909	-15.28350722122922	6.710657140793979	-1.473033739206092	-520.6658770719465	-67.40050542551657	-21.39864627805015	0.5507697666794337	0.4347954699895658	-0.5194770458719747	-1.128843354802107	0.689778967368873	-0.380187690222497	1.030011597976134	-1.483930837768692	-1.483930837768691	0.06033726272459556	0.1600666558512606	-0.7350804427589602	0.5454004659139071	-7.214946369831029e-07	4.109254649477408e-07	4.953219217663887e-06	4.440461172017589e-07	-8.952114780360308e-07	-3.342315446330615e-07	-5.578846485728101e-07
0.51	-0.267480137695974	0.01304764373403957	0.7579566829080763	1.012125130905615	-0.4469742503702531	-0.2119576806257616	-0.2531701272714322	0.9097573137249307	0.9097573137249285	-0.09688183120386287	-0.1666281528754846	0.2355437830858286	0.02952015671430443	-0.5586248368968625	-0.08880520770219986	-0.539415142804034	2.182467821709291	-0.2214145234820659	0.7764952160200558	-0.1215936608605865	2.181395928594747	2.181395928594743	0.2013487034327525	-0.0569696475516204	0.7617427839331189	0.1789726997891143	-0.1389349517822411	0.02789912444158833	-0.01262611943088742	-0.2377469841425812	0.001901440734649013	0.03823188125128515	0.1477075612216449	-31.38616767190878	-15.10153945509408	6.632558815765689	-1.178160512230787	-524.3254986724837	-67.42871177891689	-20.35922156798215	0.6138361306209892	0.4413279589606985	-0.4466024514249898	-1.351686950862924	0.6578400620507299	-0.3001404445409862	0.9976307626256842	-1.680532591960292	-1.680532591960674	-0.1312526875843137	0.2142555212490742	-0.8162867284703392	0.4631179878127291	-6.771173223570232e-07	5.440261352574595e-07	4.881000327574309e-06	4.693952707242589e-07	-8.636352544654287e-07	-1.673180467061029e-07	-5.357772383189914e-07
0.52	-0.2730352700994051	0.01218172114884596	0.7525413606906257	1.033879796660663	-0.4491548690511004	-0.2042113283409063	-0.2543360640890812	0.9314845413438858	0.9314845413438851	-0.09487183099369084	-0.1671880077592407	0.2431195771052962	0.03133362678751227	-0.5523269434275385	-0.08437149782019278	-0.5435291189390009	2.168159318694557	-0.2146978337825465	0.7726667133042991	-0.1116147740575846	2.163749588407864	2.163749588407858	0.2006436384975399	-0.05500785170204974	0.7533070359321299	0.183687697650658	-0.1433215848681049	0.02855594922284286	-0.01232393497952292	-0.2414477974217394	-0.0004133920253233454	0.0382851498240962	0.151197430712438	-32.31174080490931	-14.91947598644836	6.554262140508836	-0.9376987469401928	-528.0039181999377	-67.52571871366342	-19.33232303623173	0.6395105769799242	0.4449247313425301	-0.3766857592867404	-1.497110273116047	0.6974172220772946	-0.5146534785604834	1.004725932114549	-1.843055665269098	-1.843055665269097	0.05285616822882915	0.1600355010686415	-0.8655368432365945	0.4996907994529067	-6.184785727676445e-07	5.870296485130822e-07	4.621131719308782e-06	4.638273817606581e-07	-8.0681947170894e-07	-2.091337888778385e-08	-5.028502230502727e-07
0.53	-0.2785250876846401	0.01136020606301225	0.7470884847642923	1.05548244278817	-0.4512680691508048	-0.1965062980092231	-0.255402989859786	0.9530266315085807	0.9530266315085851	-0.09286908182207118	-0.1677281574876847	0.2506077495883068	0.03319312897747193	-0.5455463583936163	-0.07994135649780432	-0.5469247765632164	2.152075983822869	-0.2079425941731422	0.7682950653421942	-0.1018084682885204	2.14438907867488	2.144389078674878	0.1998413419291591	-0.05300254769543804	0.7442093561167653	0.1881539702704139	-0.1481955594060255	0.03047619443085699	-0.01188173521333918	-0.2441742301376199	-0.003872175881772293	0.03762868867789529	0.1549726614547082	-33.63325142696215	-14.29672330467895	6.33359704022077	-0.1326219425787485	-531.6772488841463	-66.74730941684818	-18.32044839523742	0.7107672373199834	0.4406754405640125	-0.302967694692548	-1.708148384711575	0.6638345011560608	-0.4055184009607704	0.962869668521648	-2.024356394764127	-2.024356394763376	-0.1563118258959895	0.2245928606637329	-0.9495535208469167	0.4106558085327925	-4.89422789934144e-07	4.008609870328483e-07	3.623157104725185e-06	3.530099923530531e-07	-6.468312010609803e-07	1.103233936001804e-08	-4.03943398888653e-07
0.54	-0.2839444124653918	0.0105827157119778	0.7416052598755764	1.07691541490886	-0.4533138654202578	-0.1888464037463461	-0.2563729952189558	0.9743667550224596	0.9743667550224627	-0.09087626346743828	-0.1682474911740178	0.2580014112791319	0.03509540595668836	-0.5382283825308289	-0.07556655086033993	-0.5495989114155755	2.134224517330526	-0.2012170677323765	0.7636394995430806	-0.09223069175068282	2.123356258243855	2.123356258243858	0.1986574750998013	-0.05084464328057468	0.7344048774949797	0.1922426555020045	-0.1530695339439253	0.03239643963887487	-0.01143953544726503	-0.2469006628534958	-0.007330959738221269	0.03697222753170079	0.1587478921969978	-34.95472660142966	-13.66780932702066	6.104907841501205	0.6318606134616271	-535.3558718380889	-66.01958586633101	-17.32547240269517	0.7469887427529671	0.4338575943577157	-0.2323812049154711	-1.850736597247105	0.6914745883495865	-0.5714370459621738	0.9590200858692455	-2.17751780487718	-2.177517804877179	-0.02345788396656117	0.1905555827189737	-1.006896604520808	0.4241733218198455	-2.824588001071463e-07	-3.885986777216578e-08	1.808554568257758e-06	1.257463471350591e-07	-3.726946459373495e-07	-8.365737595956218e-08	-2.320376372285037e-07
0.55	-0.2892884979837296	0.009848780702325678	0.7360989387555774	1.098161754774374	-0.4552918958691304	-0.1812385044914979	-0.2572481307331976	0.9954884593568234	0.9954884593568241	-0.08889276175138751	-0.1687462567299004	0.2652939814905036	0.03703789622736656	-0.5305253891526405	-0.07121784789143809	-0.5515369180920302	2.114745075207461	-0.194399323871009	0.7579008324861918	-0.08284952401694681	2.100703360666259	2.100703360666262	0.1979625702020497	-0.04887980586256523	0.7240163347103528	0.1961972718331955	-0.1570227370802884	0.03225325432670501	-0.01093524992808067	-0.2514049587407859	-0.009017355850300179	0.03698719255148272	0.161857732793359	-35.69497093270636	-13.48902801425268	6.012817440682368	0.7963651597679715	-539.1777105456675	-66.37210623219542	-16.34866498857545	0.7914393740217643	0.4357674818400125	-0.1552958583018153	-2.041323884280294	0.6752864213097692	-0.5811330396216265	0.9196981791960598	-2.351335274330959	-2.351335274331175	-0.1045804641481237	0.2039063576306437	-1.068771149062497	0.372335719206914	-1.456655247416712e-07	-3.48956650362662e-07	5.666849718754189e-07	-3.151451916274855e-08	-1.839847878533993e-07	-1.684867532922515e-07	-1.155754917075454e-07
0.5600000000000001	-0.2945536566205517	0.009158410889099345	0.7305770804769556	1.119204345045775	-0.4572020764521327	-0.1736892022080398	-0.2580310479576856	1.016375202807378	1.016375202807378	-0.08691862381862756	-0.1692244822043426	0.2724798786673015	0.03901817864744432	-0.5224430062276429	-0.06685351157518184	-0.552706343140132	2.093474598506639	-0.1876470945584552	0.7519201052665223	-0.07378703380039819	2.076364081483454	2.076364081483455	0.1967847184455456	-0.04673662699300515	0.7130702705805714	0.1998010853819129	-0.1609759402165985	0.03211006901450804	-0.01043096440856419	-0.2559092546280843	-0.01070375196239522	0.03700215757121459	0.1649675733897823	-36.43647400831757	-13.30915638365256	5.919559857474784	0.9359781764528394	-543.0295268959645	-66.74526993937192	-15.39079476821102	0.8228666521147961	0.4369842638286022	-0.07866487924487715	-2.208943512798695	0.6783716785868591	-0.6198490785182916	0.8952845824317712	-2.514794125919202	-2.514794125919197	-0.1200472557170672	0.226223873029099	-1.118400873551665	0.3540127653251273	-9.307710673002069e-08	-5.035045462957421e-07	1.209490359516558e-08	-1.047720507563355e-07	-9.778696621706253e-08	-2.414837250406722e-07	-6.564568555361417e-08
